{"title":"Man-Thing 2005 DVDRip Xvid BigPerm LKRG","uid":6640686,"size":1323425413,"categoryP":"video","categoryS":"movies","magnet":"?xt=urn:btih:8e820c41413d1e6ea95b7f5be08412126e73e7b0&amp;dn=Man-Thing+2005+DVDRip+Xvid+BigPerm+LKRG&amp;tr=udp%3A%2F%2Ftracker.openbittorrent.com%3A80&amp;tr=udp%3A%2F%2Fopen.demonii.com%3A1337&amp;tr=udp%3A%2F%2Ftracker.coppersurfer.tk%3A6969&amp;tr=udp%3A%2F%2Fexodus.desync.com%3A6969","seeders":3,"leechers":1,"uploader":".BONE.","files":2,"time":1314733997,"description":"\nPLOT\n\nAgents of an oil tycoon vanish while exploring a swamp marked for drilling. The local sheriff\ninvestigates and faces a Seminole legend come to life: Man-Thing, a shambling swamp-monster\nwhose touch burns those who feel fear.\n &lt;a href=&quot;\nhttp://www.imdb.com/title/tt0290747/&quot; rel=&quot;nofollow&quot; target=&quot;_NEW&quot;&gt;\nhttp://www.imdb.com/title/tt0290747/&lt;/a&gt;\n\nEncoded By .......: BigPerm1828\nRuntime ..........: 1h 37mn\nFile Size ........: 1.23 GB\nResolution .......: 640 x 272\nIMDb URL .........: http://www.imdb.com/title/tt0290747/\nGenre ............: Action | Horror | Sci-Fi\nLanguage .........: English\nSubtitles ........: None\nVideo\nID : 0\nFormat : MPEG-4 Visual\nFormat profile : Simple@L5\nFormat settings, BVOP : No\nFormat settings, QPel : No\nFormat settings, GMC : No warppoints\nFormat settings, Matrix : Default (H.263)\nCodec ID : XVID\nCodec ID/Hint : XviD\nDuration : 1h 37mn\nBit rate : 1 418 Kbps\nWidth : 640 pixels\nHeight : 272 pixels\nDisplay aspect ratio : 16:9\nFrame rate : 29.970 fps\nColor space : YUV\nChroma subsampling : 4:2:0\nBit depth : 8 bits\nScan type : Progressive\nCompression mode : Lossy\nBits/(Pixel*Frame) : 0.272\nStream size : 987 MiB (78%)\nWriting library : XviD 64\n\nAudio\nID : 1\nFormat : AC-3\nFormat/Info : Audio Coding 3\nMode extension : CM (complete main)\nCodec ID : 2000\nDuration : 1h 37mn\nBit rate mode : Constant\nBit rate : 384 Kbps\nChannel(s) : 6 channels\nChannel positions : Front: L C R, Side: L R, LFE\nSampling rate : 48.0 KHz\nBit depth : 16 bits\nCompression mode : Lossy\nStream size : 267 MiB (21%)\nAlignment : Aligned on interleaves\nInterleave, duration : 33 ms (1.00 video frame)\nInterleave, preload duration : 512 ms\n","torrent":{"xt":"urn:btih:8e820c41413d1e6ea95b7f5be08412126e73e7b0","amp;dn":"Man-Thing+2005+DVDRip+Xvid+BigPerm+LKRG","amp;tr":["udp%3A%2F%2Ftracker.openbittorrent.com%3A80","udp%3A%2F%2Fopen.demonii.com%3A1337","udp%3A%2F%2Ftracker.coppersurfer.tk%3A6969","udp%3A%2F%2Fexodus.desync.com%3A6969"],"infoHash":"8e820c41413d1e6ea95b7f5be08412126e73e7b0","infoHashBuffer":{"type":"Buffer","data":[142,130,12,65,65,61,30,110,169,91,127,91,224,132,18,18,110,115,231,176]},"announce":[],"urlList":[]}}